<?xml version="1.0" encoding="UTF-8" standalone="no"?>
<svg
   class="mud-icon-root mud-icon-default mud-svg-icon mud-icon-size-medium"
   focusable="false"
   viewBox="0 0 24 24"
   aria-hidden="true"
   role="img"
   version="1.1"
   id="svg2"
   sodipodi:docname="ConfigFile.svg"
   inkscape:version="1.4.2 (f4327f4, 2025-05-13)"
   xmlns:inkscape="http://www.inkscape.org/namespaces/inkscape"
   xmlns:sodipodi="http://sodipodi.sourceforge.net/DTD/sodipodi-0.dtd"
   xmlns="http://www.w3.org/2000/svg"
   xmlns:svg="http://www.w3.org/2000/svg">
  <defs
     id="defs2" />
  <sodipodi:namedview
     id="namedview2"
     pagecolor="#505050"
     bordercolor="#eeeeee"
     borderopacity="1"
     inkscape:showpageshadow="0"
     inkscape:pageopacity="0"
     inkscape:pagecheckerboard="0"
     inkscape:deskcolor="#505050"
     inkscape:zoom="34.383067"
     inkscape:cx="6.4566665"
     inkscape:cy="14.498416"
     inkscape:window-width="2560"
     inkscape:window-height="1369"
     inkscape:window-x="-8"
     inkscape:window-y="-8"
     inkscape:window-maximized="1"
     inkscape:current-layer="svg2" />
  <path
     d="m 19.14,12.94 c 0.04,-0.3 0.06,-0.61 0.06,-0.94 0,-0.32 -0.02,-0.64 -0.07,-0.94 L 21.16,9.48 C 21.34,9.34 21.39,9.07 21.28,8.87 L 19.36,5.55 C 19.24,5.33 18.99,5.26 18.77,5.33 L 16.38,6.29 C 15.88,5.91 15.35,5.59 14.76,5.35 L 14.4,2.81 C 14.36,2.57 14.16,2.4 13.92,2.4 H 10.08 C 9.8399998,2.4 9.6500001,2.57 9.6100001,2.81 l -0.36,2.54 c -0.59,0.24 -1.13,0.57 -1.62,0.94 l -2.39,-0.96 c -0.22,-0.08 -0.47,0 -0.59,0.22 l -1.91,3.32 c -0.12,0.21 -0.08,0.47 0.12,0.61 l 2.03,1.58 c -0.05,0.3 -0.09,0.63 -0.09,0.94 0,0.31 0.02,0.64 0.07,0.94 l -2.03,1.58 c -0.18,0.14 -0.23,0.41 -0.12,0.61 l 1.92,3.32 c 0.12,0.22 0.37,0.29 0.59,0.22 l 2.39,-0.96 c 0.5,0.38 1.03,0.7 1.6200001,0.94 l 0.36,2.54 c 0.05,0.24 0.2399997,0.41 0.4799998,0.41 h 3.84 c 0.24,0 0.44,-0.17 0.47,-0.41 l 0.36,-2.54 c 0.59,-0.24 1.13,-0.56 1.62,-0.94 l 2.39,0.96 c 0.22,0.08 0.47,0 0.59,-0.22 l 1.92,-3.32 c 0.12,-0.22 0.07,-0.47 -0.12,-0.61 z M 12,15.6 C 10.02,15.6 8.4000001,13.98 8.4000001,12 8.4000001,10.02 10.02,8.4 12,8.4 c 1.98,0 3.6,1.62 3.6,3.6 0,1.98 -1.62,3.6 -3.6,3.6 z"
     id="path2"
     style="display:inline;fill:#c0c0c0;fill-opacity:1" />
</svg>
